<svg width="185" height="25" viewBox="0 0 185 25" fill="none" xmlns="http://www.w3.org/2000/svg">
<path d="M14.2588 17.1802C11.8586 16.7584 10.0295 14.6592 10.0295 12.1406C10.0295 9.62194 11.8586 7.5227 14.2588 7.10095V0H2.66315C1.19415 0 0 1.19179 0 2.66315V5.84046H0.196657C3.67724 5.84046 6.49677 8.66236 6.49677 12.1406C6.49677 15.6211 3.67487 18.4407 0.196657 18.4407H0V21.618C0 23.087 1.19178 24.2811 2.66315 24.2811H14.2588V17.1802Z" fill="#84F4D4"/>
<path d="M15.7266 7.10095C18.1267 7.5227 19.9559 9.62194 19.9559 12.1406C19.9559 14.6592 18.1267 16.7584 15.7266 17.1802V24.2811H27.3198C28.7888 24.2811 29.983 23.0893 29.983 21.618V18.4407H29.5707C26.2038 18.4407 23.4767 15.7112 23.4767 12.3467C23.4767 8.75239 26.391 5.84046 29.983 5.84046V2.66315C29.983 1.19416 28.7912 0 27.3198 0H15.7266V7.10095Z" fill="#0074D9"/>
<path d="M18.3008 12.1403C18.3008 10.6049 17.2712 9.30891 15.8711 8.91797V15.3626C17.2712 14.9717 18.3008 13.6756 18.3008 12.1403Z" fill="#0074D9"/>
<path d="M11.6816 12.1403C11.6816 13.6756 12.7112 14.9717 14.1114 15.3626V8.91797C12.7112 9.30891 11.6816 10.6049 11.6816 12.1403Z" fill="#84F4D4"/>
<path d="M0.00195312 16.6662V7.61523H0.196612C2.67091 7.61523 4.67615 9.64103 4.67615 12.1407C4.67615 14.6404 2.67091 16.6662 0.196612 16.6662H0.00195312Z" fill="#84F4D4"/>
<path d="M25.2969 12.1407C25.2969 9.64103 27.3021 7.61523 29.7764 7.61523H29.9805V16.6662H29.7764C27.3021 16.6662 25.2969 14.6404 25.2969 12.1407Z" fill="#0074D9"/>
<path d="M56.6352 2.5918V5.70969H42.3809L44.215 3.69957V22.737H40.8477V2.59914H56.6352V2.5918ZM42.4836 11.4026H56.2244V14.5205H42.4836V11.4026Z" fill="white"/>
<path d="M65.0864 22.7369C63.7586 22.7369 62.6361 22.4508 61.7044 21.8786C60.78 21.3063 60.0684 20.4847 59.5769 19.4063C59.0854 18.3278 58.8359 17.0513 58.8359 15.5694V7.16945H62.1519V15.0339C62.1519 16.6112 62.4967 17.807 63.1863 18.6213C63.8759 19.4356 64.8663 19.8464 66.1575 19.8464C67.0892 19.8464 67.8962 19.6337 68.5638 19.2008C69.2314 18.768 69.7596 18.1591 70.1337 17.3595C70.5079 16.5598 70.6913 15.6354 70.6913 14.579L71.8357 15.2466C71.6963 16.8019 71.3222 18.1444 70.7133 19.2595C70.1044 20.382 69.312 21.2403 68.3437 21.8345C67.3753 22.4361 66.2895 22.7369 65.0791 22.7369H65.0864ZM71.5349 22.3627L70.6913 16.8826V7.16211H74.0072V17.4181L74.8509 22.3554H71.5349V22.3627Z" fill="white"/>
<path d="M77.0527 9.84048V8.25585L80.1413 7.42685L81.5205 3.18652H83.4573V7.16275H90.1625V9.84781H83.4573V16.4284C83.4573 17.6976 83.714 18.5926 84.2349 19.0988C84.7558 19.6123 85.5994 19.8617 86.7732 19.8617C87.5215 19.8617 88.1818 19.7737 88.7613 19.605C89.3409 19.4362 89.8911 19.1868 90.4193 18.864V21.7398C89.9791 21.9746 89.3556 22.1947 88.5486 22.4147C87.7416 22.6275 86.9126 22.7375 86.0616 22.7375C84.6531 22.7375 83.5086 22.4881 82.6429 21.9966C81.7773 21.5051 81.139 20.8228 80.7428 19.9571C80.3467 19.0914 80.1413 18.0937 80.1413 16.9639V9.84781H77.0527V9.84048Z" fill="white"/>
<path d="M108.553 17.7489C108.553 18.7686 108.282 19.6563 107.739 20.4046C107.196 21.1529 106.367 21.7324 105.267 22.1359C104.159 22.5394 102.78 22.7375 101.107 22.7375C99.4345 22.7375 97.9012 22.5101 96.6467 22.0552C95.3922 21.6004 94.4165 20.9548 93.7269 20.1258C93.0373 19.2968 92.6705 18.3284 92.6191 17.2427H95.9865C96.0892 17.8149 96.3679 18.3211 96.8155 18.7613C97.263 19.2014 97.8572 19.5389 98.5982 19.7663C99.3391 20.0011 100.183 20.1185 101.136 20.1185C102.516 20.1185 103.55 19.9424 104.247 19.5976C104.944 19.2455 105.296 18.7173 105.296 17.9983C105.296 17.5141 105.061 17.1473 104.592 16.8979C104.122 16.6484 103.242 16.4577 101.951 16.333L99.119 16.0615C97.5858 15.9222 96.3826 15.6287 95.4949 15.1885C94.6073 14.7484 93.9837 14.2128 93.6095 13.5746C93.2354 12.9363 93.052 12.2614 93.052 11.5498C93.052 10.5154 93.3601 9.64236 93.969 8.94542C94.5779 8.24847 95.4289 7.71293 96.522 7.34611C97.6078 6.9793 98.8769 6.7959 100.322 6.7959C101.767 6.7959 103.154 7.01599 104.328 7.45616C105.502 7.89634 106.433 8.50525 107.13 9.28289C107.827 10.0605 108.216 10.9629 108.304 11.9826H104.937C104.871 11.5718 104.673 11.1756 104.335 10.7868C104.005 10.4053 103.499 10.0825 102.831 9.81843C102.156 9.56166 101.261 9.42961 100.139 9.42961C98.9503 9.42961 98.0186 9.591 97.3437 9.91379C96.6687 10.2366 96.3386 10.7134 96.3386 11.337C96.3386 11.7332 96.544 12.0633 96.9475 12.3421C97.3583 12.6209 98.114 12.8116 99.2144 12.9216L102.86 13.2738C104.32 13.4205 105.465 13.6919 106.287 14.0954C107.108 14.4989 107.695 15.0125 108.033 15.636C108.37 16.2596 108.539 16.9712 108.539 17.7562L108.553 17.7489Z" fill="white"/>
<path d="M126.006 14.763C125.683 16.355 125.148 17.7489 124.399 18.952C123.651 20.1552 122.727 21.0795 121.634 21.7471C120.533 22.4074 119.315 22.7375 117.973 22.7375C116.564 22.7375 115.31 22.4 114.224 21.7324C113.138 21.0575 112.287 20.1258 111.671 18.93C111.062 17.7342 110.754 16.3477 110.754 14.7704C110.754 13.1931 111.062 11.7845 111.671 10.5961C112.28 9.4076 113.131 8.4759 114.224 7.80097C115.31 7.12604 116.564 6.7959 117.973 6.7959C119.381 6.7959 120.533 7.12603 121.634 7.78629C122.727 8.44655 123.658 9.37826 124.414 10.5667C125.17 11.7552 125.705 13.1564 126.006 14.7704V14.763ZM114.129 14.763C114.129 15.7828 114.327 16.6851 114.73 17.4628C115.126 18.2404 115.677 18.8493 116.373 19.2895C117.07 19.7297 117.87 19.9497 118.772 19.9497C119.675 19.9497 120.54 19.7297 121.325 19.2895C122.11 18.8493 122.8 18.2404 123.402 17.4628C124.003 16.6851 124.487 15.7828 124.839 14.763C124.48 13.7433 124.003 12.8409 123.402 12.0633C122.8 11.2857 122.103 10.6768 121.325 10.2366C120.54 9.79641 119.697 9.57633 118.772 9.57633C117.848 9.57633 117.07 9.79641 116.373 10.2366C115.677 10.6768 115.126 11.2857 114.73 12.0633C114.334 12.8409 114.129 13.7433 114.129 14.763ZM124.986 22.3633L124.429 16.7218L125.089 14.763L124.429 12.8336L124.986 7.17005H128.405L127.642 14.7704L128.405 22.3707H124.986V22.3633Z" fill="white"/>
<path d="M130.607 2.06348H133.923V22.7369H130.607V2.06348Z" fill="white"/>
<path d="M136.123 2.05664H139.439V22.7301H136.123V2.05664Z" fill="white"/>
<path d="M144.611 5.5192C143.981 5.5192 143.467 5.33579 143.056 4.96898C142.645 4.60217 142.447 4.12531 142.447 3.53108C142.447 2.93684 142.653 2.46 143.056 2.09318C143.46 1.72637 143.981 1.54297 144.611 1.54297C145.242 1.54297 145.778 1.72637 146.181 2.09318C146.585 2.46 146.783 2.93684 146.783 3.53108C146.783 4.12531 146.585 4.60217 146.181 4.96898C145.778 5.33579 145.257 5.5192 144.611 5.5192ZM142.953 7.4266L144.611 7.7494L146.269 7.4266V22.7299H142.953V7.4266Z" fill="white"/>
<path d="M149.102 7.53676H152.418L153.283 13.0169V22.7374H149.967V12.5107L149.102 7.54409V7.53676ZM159.02 7.16261C160.377 7.16261 161.536 7.44873 162.49 8.02095C163.444 8.59318 164.17 9.41483 164.669 10.4786C165.168 11.5423 165.425 12.8262 165.425 14.3301V22.7374H162.109V14.895C162.109 13.303 161.757 12.0999 161.052 11.2856C160.348 10.4712 159.314 10.0604 157.956 10.0604C157.025 10.0604 156.203 10.2805 155.499 10.7207C154.794 11.1608 154.252 11.7698 153.87 12.5621C153.489 13.347 153.298 14.2714 153.298 15.3278L152.124 14.6529C152.278 13.0756 152.667 11.7331 153.298 10.6253C153.929 9.51753 154.736 8.65919 155.719 8.05762C156.702 7.45606 157.81 7.15527 159.035 7.15527L159.02 7.16261Z" fill="white"/>
<path d="M172.048 19.7002L171.08 19.3261L180.257 7.53679H184.079L171.813 22.7301H168.725V2.05664H172.041V19.6929L172.048 19.7002ZM176.149 15.2105L178.467 13.0096L184.512 22.7301H180.609L176.149 15.2105Z" fill="white"/>
</svg>
